<svg width="20" height="20" viewBox="0 0 20 20" fill="none" xmlns="http://www.w3.org/2000/svg">
<path d="M7.63069 17.3096V14.754C7.63067 14.1039 8.16061 13.5758 8.81718 13.5714H11.2222C11.882 13.5714 12.4168 14.1009 12.4168 14.754V17.3175C12.4166 17.8694 12.8616 18.3205 13.4189 18.3334H15.0222C16.6206 18.3334 17.9163 17.0506 17.9163 15.4683V8.19828C17.9078 7.57577 17.6126 6.99121 17.1147 6.61094L11.6311 2.23783C10.6705 1.47639 9.30484 1.47639 8.34419 2.23783L2.8847 6.61888C2.38489 6.9976 2.08916 7.58314 2.08301 8.20621V15.4683C2.08301 17.0506 3.37874 18.3334 4.9771 18.3334H6.58048C7.15164 18.3334 7.61465 17.875 7.61465 17.3096" stroke="#200E32" stroke-width="1.5" stroke-linecap="round" stroke-linejoin="round"/>
</svg>
